<svg 
 xmlns="http://www.w3.org/2000/svg"
 xmlns:xlink="http://www.w3.org/1999/xlink"
 width="180px" height="180px">
<path fill-rule="evenodd"  fill="rgb(25, 25, 25)"
 d="M90.000,-0.000 C139.706,-0.000 180.000,40.294 180.000,90.000 C180.000,139.706 139.706,180.000 90.000,180.000 C40.294,180.000 -0.000,139.706 -0.000,90.000 C-0.000,40.294 40.294,-0.000 90.000,-0.000 Z"/>
<path fill-rule="evenodd"  fill="rgb(255, 255, 255)"
 d="M33.600,101.509 L33.600,105.213 C33.600,143.175 60.760,149.965 86.685,129.749 C86.685,129.749 132.177,89.030 145.943,83.454 C147.685,83.280 145.943,79.905 145.943,79.905 C145.943,41.789 120.481,34.690 95.944,53.517 L33.600,101.509 ZM91.623,50.739 L88.1000,48.116 C69.247,29.598 33.600,43.949 33.600,81.294 C33.600,81.294 25.525,94.082 33.600,95.645 C43.022,93.767 91.623,50.739 91.623,50.739 ZM97.796,126.817 L101.037,129.749 C122.178,148.113 141.044,133.375 147.000,99.1000 C147.000,99.1000 157.623,85.201 145.943,89.164 C129.254,93.544 97.796,126.817 97.796,126.817 Z"/>
</svg>